<svg width="264" height="198" viewBox="0 0 264 198" fill="none" xmlns="http://www.w3.org/2000/svg">
<g clip-path="url(#clip0_101_9366)">
<path d="M252.599 183.822H53.8936C50.871 183.818 47.9732 182.615 45.836 180.476C43.6987 178.336 42.4965 175.436 42.493 172.41V66.2462C42.4965 63.2207 43.6987 60.32 45.836 58.1807C47.9732 56.0413 50.871 54.8379 53.8936 54.8345H252.599C255.622 54.8379 258.52 56.0413 260.657 58.1807C262.794 60.32 263.997 63.2207 264 66.2462V172.41C263.997 175.436 262.794 178.336 260.657 180.476C258.52 182.615 255.622 183.818 252.599 183.822Z" fill="white"/>
<path d="M252.599 183.822H53.8936C50.871 183.818 47.9732 182.615 45.836 180.476C43.6987 178.336 42.4965 175.436 42.493 172.41V66.2462C42.4965 63.2207 43.6987 60.32 45.836 58.1807C47.9732 56.0413 50.871 54.8379 53.8936 54.8345H252.599C255.622 54.8379 258.52 56.0413 260.657 58.1807C262.794 60.32 263.997 63.2207 264 66.2462V172.41C263.997 175.436 262.794 178.336 260.657 180.476C258.52 182.615 255.622 183.818 252.599 183.822ZM53.8936 55.5261C51.0542 55.5293 48.3321 56.6598 46.3243 58.6695C44.3166 60.6792 43.1872 63.4041 43.184 66.2462V172.41C43.1872 175.252 44.3166 177.977 46.3243 179.987C48.3321 181.996 51.0542 183.127 53.8936 183.13H252.599C255.439 183.127 258.161 181.996 260.169 179.987C262.176 177.977 263.306 175.252 263.309 172.41V66.2462C263.306 63.4041 262.176 60.6792 260.169 58.6695C258.161 56.6598 255.439 55.5293 252.599 55.5261H53.8936Z" fill="#F5F5F5"/>
<path d="M252.599 175.522H53.8935C53.0692 175.521 52.2789 175.193 51.696 174.61C51.1131 174.026 50.7852 173.235 50.7843 172.41V66.2462C50.7852 65.4211 51.1131 64.63 51.696 64.0465C52.2789 63.4631 53.0692 63.1349 53.8935 63.1339H252.599C253.424 63.1349 254.214 63.4631 254.797 64.0465C255.38 64.63 255.708 65.4211 255.709 66.2462V172.41C255.708 173.235 255.38 174.026 254.797 174.61C254.214 175.193 253.424 175.521 252.599 175.522ZM53.8935 63.8255C53.2524 63.8263 52.6377 64.0815 52.1843 64.5353C51.731 64.9891 51.476 65.6044 51.4752 66.2462V172.41C51.476 173.052 51.731 173.667 52.1843 174.121C52.6377 174.575 53.2524 174.83 53.8935 174.831H252.599C253.241 174.83 253.855 174.575 254.309 174.121C254.762 173.667 255.017 173.052 255.018 172.41V66.2462C255.017 65.6044 254.762 64.9891 254.309 64.5353C253.855 64.0815 253.241 63.8263 252.599 63.8255H53.8935Z" fill="#F5F5F5"/>
<path d="M202.026 176.028L9.95409 125.064C7.0333 124.285 4.54029 122.379 3.022 119.763C1.50371 117.146 1.08413 114.034 1.85531 111.109L29.0312 8.48925C29.809 5.5656 31.7136 3.07014 34.3271 1.55037C36.9407 0.0305867 40.0498 -0.389403 42.9723 0.382538L235.044 51.3472C237.965 52.1258 240.458 54.0322 241.977 56.6484C243.495 59.2645 243.914 62.3767 243.143 65.3021L215.967 167.922C215.19 170.845 213.285 173.341 210.671 174.861C208.058 176.38 204.949 176.8 202.026 176.028Z" fill="#F5F5F5"/>
<path d="M202.026 176.028L9.95409 125.064C7.0333 124.285 4.54029 122.379 3.022 119.763C1.50371 117.146 1.08413 114.034 1.85531 111.109L29.0312 8.48925C29.809 5.5656 31.7136 3.07014 34.3271 1.55037C36.9407 0.0305867 40.0498 -0.389403 42.9723 0.382538L235.044 51.3472C237.965 52.1258 240.458 54.0322 241.977 56.6484C243.495 59.2645 243.914 62.3767 243.143 65.3021L215.967 167.922C215.19 170.845 213.285 173.341 210.671 174.861C208.058 176.38 204.949 176.8 202.026 176.028ZM42.7953 1.05107C40.0499 0.325926 37.1292 0.720467 34.674 2.14814C32.2189 3.57581 30.4297 5.92001 29.6991 8.66647L2.52319 111.286C1.79876 114.034 2.19292 116.958 3.61919 119.415C5.04546 121.873 7.38736 123.664 10.1311 124.395L202.203 175.36C204.949 176.085 207.869 175.69 210.325 174.263C212.78 172.835 214.569 170.491 215.3 167.744L242.475 65.1248C243.2 62.3767 242.806 59.4532 241.379 56.9956C239.953 54.538 237.611 52.7471 234.867 52.0158L42.7953 1.05107Z" fill="#D0D0D0"/>
<path d="M204.151 168.006L12.0787 117.041C11.2822 116.829 10.6023 116.309 10.1882 115.595C9.77411 114.882 9.65968 114.033 9.86999 113.235L37.0459 10.6156C37.258 9.81821 37.7774 9.13763 38.4902 8.72315C39.203 8.30866 40.0509 8.19412 40.848 8.40463L232.92 59.3693C233.717 59.5817 234.397 60.1016 234.811 60.8151C235.225 61.5286 235.339 62.3774 235.129 63.1752L207.953 165.795C207.741 166.592 207.221 167.273 206.509 167.687C205.796 168.102 204.948 168.216 204.151 168.006ZM40.671 9.07317C40.051 8.90942 39.3915 8.9985 38.8371 9.32088C38.2827 9.64326 37.8787 10.1726 37.7137 10.7928L10.5379 113.412C10.3743 114.033 10.4633 114.693 10.7853 115.248C11.1074 115.803 11.6362 116.207 12.2558 116.372L204.328 167.337C204.948 167.501 205.607 167.412 206.162 167.089C206.716 166.767 207.12 166.238 207.285 165.618L234.461 62.998C234.625 62.3774 234.536 61.7173 234.214 61.1623C233.891 60.6074 233.363 60.203 232.743 60.0379L40.671 9.07317Z" fill="white"/>
<path d="M210.106 198H11.4006C8.37799 197.997 5.4802 196.793 3.34292 194.654C1.20564 192.514 0.00341429 189.614 0 186.588V80.4244C0.00341429 77.3989 1.20564 74.4983 3.34292 72.3589C5.4802 70.2195 8.37799 69.0161 11.4006 69.0127H210.106C213.129 69.0161 216.027 70.2195 218.164 72.3589C220.301 74.4983 221.504 77.3989 221.507 80.4244V186.588C221.504 189.614 220.301 192.514 218.164 194.654C216.027 196.793 213.129 197.997 210.106 198Z" fill="white"/>
<path d="M156.12 189.009H27.8016C27.641 189.01 27.4805 189.006 27.3221 188.997L88.0109 154.784C89.1665 154.12 91.7591 153.886 93.8017 154.262C94.3617 154.348 94.9041 154.524 95.4077 154.784L136.137 177.743L138.089 178.842L156.12 189.009Z" fill="#D0D0D0"/>
<path d="M196.603 189.009H85.6182L107.125 178.842L108.673 178.11L136.698 164.86C138.535 163.992 142.955 163.938 145.115 164.696C145.26 164.748 145.395 164.803 145.519 164.86L196.603 189.009Z" fill="#D0D0D0"/>
<path d="M11.4008 69.7043C8.5614 69.7076 5.83924 70.838 3.83149 72.8478C1.82375 74.8575 0.694382 77.5823 0.691162 80.4245V186.588C0.694382 189.43 1.82375 192.155 3.83149 194.165C5.83924 196.175 8.5614 197.305 11.4008 197.308H210.107C212.946 197.305 215.668 196.175 217.676 194.165C219.684 192.155 220.813 189.43 220.816 186.588V80.4245C220.813 77.5823 219.684 74.8575 217.676 72.8478C215.668 70.838 212.946 69.7076 210.107 69.7043H11.4008Z" fill="#1C1C1C"/>
<path d="M210.107 189.701H11.4006C10.5763 189.7 9.78599 189.371 9.2031 188.788C8.62021 188.204 8.29233 187.413 8.29138 186.588V80.4244C8.29233 79.5993 8.62021 78.8082 9.2031 78.2248C9.78599 77.6413 10.5763 77.3131 11.4006 77.3121H210.107C210.931 77.3131 211.721 77.6413 212.304 78.2248C212.887 78.8082 213.215 79.5993 213.216 80.4244V186.588C213.215 187.413 212.887 188.204 212.304 188.788C211.721 189.371 210.931 189.7 210.107 189.701ZM11.4006 78.0038C10.7595 78.0045 10.1448 78.2597 9.69142 78.7135C9.23806 79.1674 8.98304 79.7826 8.98233 80.4244V186.588C8.98304 187.23 9.23806 187.845 9.69142 188.299C10.1448 188.753 10.7595 189.008 11.4006 189.009H210.107C210.748 189.008 211.362 188.753 211.816 188.299C212.269 187.845 212.524 187.23 212.525 186.588V80.4244C212.524 79.7826 212.269 79.1674 211.816 78.7135C211.362 78.2597 210.748 78.0045 210.107 78.0038H11.4006Z" fill="#F5F5F5"/>
<path d="M165.832 96.7445C177.643 96.7445 187.218 87.1604 187.218 75.3378C187.218 63.5152 177.643 53.931 165.832 53.931C154.021 53.931 144.446 63.5152 144.446 75.3378C144.446 87.1604 154.021 96.7445 165.832 96.7445Z" fill="#FFAF37"/>
<path d="M174.773 153.276C189.732 153.276 201.859 138.082 201.859 119.339C201.859 100.596 189.732 85.4019 174.773 85.4019C159.813 85.4019 147.687 100.596 147.687 119.339C147.687 138.082 159.813 153.276 174.773 153.276Z" fill="#F5F5F5"/>
<path d="M174.847 112.515H174.921L176.261 189.383H173.433L174.847 112.515Z" fill="#F5F5F5"/>
<path d="M179.467 163.404C179.55 163.561 179.567 163.745 179.514 163.915C179.462 164.085 179.344 164.227 179.187 164.31L175.302 166.357L174.678 165.17L178.563 163.123C178.72 163.04 178.903 163.023 179.073 163.076C179.243 163.129 179.384 163.247 179.467 163.404Z" fill="#F5F5F5"/>
<path d="M96.9011 153.276C111.86 153.276 123.987 138.082 123.987 119.339C123.987 100.596 111.86 85.4019 96.9011 85.4019C81.9419 85.4019 69.8151 100.596 69.8151 119.339C69.8151 138.082 81.9419 153.276 96.9011 153.276Z" fill="#F5F5F5"/>
<path d="M101.596 164.675V164.675C101.513 164.518 101.371 164.4 101.201 164.347C101.032 164.294 100.848 164.311 100.691 164.394L97.9788 165.823L97.05 112.515H96.9756L95.5619 189.383H98.3895L98.0051 167.325L101.315 165.58C101.472 165.498 101.59 165.356 101.643 165.186C101.695 165.016 101.678 164.832 101.596 164.675Z" fill="#F5F5F5"/>
<path d="M135.743 41.1296C154.698 41.1296 170.104 76.8803 170.104 100.629C170.104 124.379 154.738 143.631 135.783 143.631C116.828 143.631 101.462 124.379 101.462 100.629C101.462 76.8803 116.788 41.1296 135.743 41.1296Z" fill="#117DC1"/>
<path d="M141.731 157.729C141.68 157.631 141.609 157.543 141.523 157.472C141.437 157.401 141.338 157.347 141.232 157.314C141.126 157.281 141.014 157.269 140.903 157.279C140.792 157.289 140.684 157.322 140.585 157.373L137.149 159.184L135.972 91.6366H135.878L134.086 189.037H137.669L137.182 161.087L141.376 158.877C141.475 158.825 141.562 158.754 141.633 158.668C141.705 158.582 141.758 158.483 141.791 158.377C141.824 158.27 141.836 158.158 141.826 158.047C141.815 157.936 141.783 157.828 141.731 157.729Z" fill="#1C1C1C"/>
<path d="M210.798 197.308H12.0917C9.06915 197.305 6.17136 196.102 4.03408 193.962C1.8968 191.823 0.694576 188.922 0.691162 185.897V79.7329C0.694576 76.7073 1.8968 73.8067 4.03408 71.6673C6.17136 69.5279 9.06915 68.3245 12.0917 68.3211H210.798C213.82 68.3245 216.718 69.5279 218.855 71.6673C220.992 73.8067 222.195 76.7073 222.198 79.7329V185.897C222.195 188.922 220.992 191.823 218.855 193.962C216.718 196.102 213.82 197.305 210.798 197.308Z" fill="white"/>
<path d="M156.811 188.317H28.4924C28.3318 188.318 28.1713 188.314 28.0129 188.305L88.7017 154.093C89.8573 153.428 92.4499 153.194 94.4925 153.57C95.0525 153.656 95.5949 153.833 96.0985 154.093L136.828 177.052L138.78 178.15L156.811 188.317Z" fill="#D0D0D0"/>
<path d="M197.294 188.317H86.309L107.816 178.15L109.363 177.418L137.389 164.168C139.226 163.3 143.646 163.246 145.806 164.005C145.951 164.056 146.086 164.111 146.21 164.168L197.294 188.317Z" fill="#D0D0D0"/>
<path d="M210.798 197.308H12.0917C9.06915 197.305 6.17136 196.102 4.03408 193.962C1.8968 191.823 0.694576 188.922 0.691162 185.897V79.7329C0.694576 76.7073 1.8968 73.8067 4.03408 71.6673C6.17136 69.5279 9.06915 68.3245 12.0917 68.3211H210.798C213.82 68.3245 216.718 69.5279 218.855 71.6673C220.992 73.8067 222.195 76.7073 222.198 79.7329V185.897C222.195 188.922 220.992 191.823 218.855 193.962C216.718 196.102 213.82 197.305 210.798 197.308ZM12.0917 69.0127C9.25234 69.0159 6.53018 70.1464 4.52243 72.1561C2.51469 74.1659 1.38532 76.8907 1.38211 79.7329V185.897C1.38532 188.739 2.51469 191.464 4.52243 193.473C6.53018 195.483 9.25234 196.614 12.0917 196.617H210.798C213.637 196.614 216.359 195.483 218.367 193.473C220.375 191.464 221.504 188.739 221.507 185.897V79.7329C221.504 76.8907 220.375 74.1659 218.367 72.1561C216.359 70.1464 213.637 69.0159 210.798 69.0127H12.0917Z" fill="#1C1C1C"/>
<path d="M210.798 189.009H12.0918C11.2675 189.008 10.4772 188.68 9.89426 188.096C9.31137 187.513 8.98349 186.722 8.98254 185.897V79.7328C8.98349 78.9077 9.31137 78.1166 9.89426 77.5332C10.4772 76.9497 11.2675 76.6215 12.0918 76.6205H210.798C211.622 76.6215 212.412 76.9497 212.995 77.5332C213.578 78.1166 213.906 78.9077 213.907 79.7328V185.897C213.906 186.722 213.578 187.513 212.995 188.096C212.412 188.68 211.622 189.008 210.798 189.009ZM12.0918 77.3122C11.4506 77.3129 10.8359 77.5682 10.3826 78.022C9.92922 78.4758 9.67421 79.0911 9.67349 79.7328V185.897C9.67421 186.538 9.92922 187.154 10.3826 187.608C10.8359 188.061 11.4506 188.317 12.0918 188.317H210.798C211.439 188.317 212.054 188.061 212.507 187.608C212.96 187.154 213.215 186.538 213.216 185.897V79.7328C213.215 79.0911 212.96 78.4758 212.507 78.022C212.054 77.5682 211.439 77.3129 210.798 77.3122H12.0918Z" fill="#F5F5F5"/>
<path d="M166.523 96.0529C178.334 96.0529 187.909 86.4688 187.909 74.6462C187.909 62.8236 178.334 53.2394 166.523 53.2394C154.712 53.2394 145.137 62.8236 145.137 74.6462C145.137 86.4688 154.712 96.0529 166.523 96.0529Z" fill="#FFAF37"/>
<path d="M42.9951 50.15C43.3499 47.8919 46.2063 47.1298 47.6474 48.9088L55.7889 58.9585L68.5265 56.9638C70.7821 56.6106 72.3993 59.1031 71.1585 61.0204L64.1565 71.8402L70.0259 83.3588C71.0657 85.3995 69.2082 87.7018 67.0012 87.1076L54.5298 83.7499L45.4153 92.8669C43.8023 94.4803 41.0376 93.4113 40.9134 91.1263L40.2125 78.2287L28.7157 72.3446C26.6783 71.3018 26.8272 68.3382 28.958 67.5211L40.9907 62.9068L42.9951 50.15Z" fill="#FFAF37"/>
<path d="M113.161 8.04875C114.32 7.20715 115.92 8.12708 115.767 9.5471L114.905 17.5693L121.418 22.2919C122.571 23.1282 122.18 24.9409 120.781 25.2422L112.886 26.9422L110.368 34.6138C109.922 35.9729 108.08 36.1728 107.369 34.9394L103.348 27.969L95.2757 27.9872C93.8472 27.9905 93.0999 26.3018 94.059 25.2376L99.4722 19.2306L97.0035 11.5727C96.566 10.2157 97.9468 8.97176 99.2508 9.54818L106.615 12.8033L113.161 8.04875Z" fill="#FFAF37"/>
<path d="M175.464 152.584C190.423 152.584 202.55 137.39 202.55 118.647C202.55 99.9044 190.423 84.7103 175.464 84.7103C160.505 84.7103 148.378 99.9044 148.378 118.647C148.378 137.39 160.505 152.584 175.464 152.584Z" fill="#F5F5F5"/>
<path d="M175.538 111.823H175.613L176.952 188.691H174.124L175.538 111.823Z" fill="#F5F5F5"/>
<path d="M180.158 162.712C180.241 162.87 180.258 163.054 180.205 163.223C180.152 163.393 180.035 163.535 179.877 163.618L175.993 165.665L175.369 164.479L179.253 162.432C179.411 162.349 179.594 162.332 179.764 162.384C179.934 162.437 180.075 162.555 180.158 162.712Z" fill="#F5F5F5"/>
<path d="M97.5922 152.584C112.551 152.584 124.678 137.39 124.678 118.647C124.678 99.9044 112.551 84.7103 97.5922 84.7103C82.6329 84.7103 70.5061 99.9044 70.5061 118.647C70.5061 137.39 82.6329 152.584 97.5922 152.584Z" fill="#F5F5F5"/>
<path d="M102.287 163.983V163.983C102.204 163.826 102.062 163.708 101.892 163.655C101.723 163.603 101.539 163.62 101.382 163.702L98.6698 165.132L97.7409 111.823H97.6665L96.2528 188.692H99.0804L98.696 166.633L102.006 164.889C102.163 164.806 102.281 164.664 102.333 164.494C102.386 164.324 102.369 164.141 102.287 163.983Z" fill="#F5F5F5"/>
<path d="M136.434 40.438C155.389 40.438 170.795 76.1887 170.795 99.9379C170.795 123.687 155.429 142.94 136.474 142.94C117.519 142.94 102.153 123.687 102.153 99.9379C102.153 76.1887 117.479 40.438 136.434 40.438Z" fill="#117DC1"/>
<path d="M142.422 157.038C142.37 156.939 142.3 156.852 142.214 156.78C142.128 156.709 142.029 156.655 141.923 156.622C141.816 156.589 141.705 156.577 141.594 156.588C141.483 156.598 141.375 156.63 141.276 156.682L137.84 158.493L136.663 90.9449H136.569L134.777 188.346H138.36L137.873 160.395L142.067 158.185C142.165 158.133 142.253 158.062 142.324 157.976C142.395 157.891 142.449 157.792 142.482 157.685C142.515 157.579 142.527 157.467 142.516 157.355C142.506 157.244 142.474 157.136 142.422 157.038Z" fill="#1C1C1C"/>
</g>
<defs>
<clipPath id="clip0_101_9366">
<rect width="264" height="198" fill="white"/>
</clipPath>
</defs>
</svg>
